<svg xmlns="http://www.w3.org/2000/svg" viewBox="0 0 960 580">
  <style>text { font-family: "Helvetica Neue", Helvetica, Arial, "PingFang SC", "Microsoft YaHei", sans-serif; }</style>
  <defs>
    <marker id="mb" markerWidth="10" markerHeight="7" refX="9" refY="3.5" orient="auto"><polygon points="0 0,10 3.5,0 7" fill="#2563eb"/></marker>
    <marker id="mo" markerWidth="10" markerHeight="7" refX="9" refY="3.5" orient="auto"><polygon points="0 0,10 3.5,0 7" fill="#ea580c"/></marker>
  </defs>
  <rect width="960" height="580" fill="#ffffff"/>
  <text x="480" y="28" text-anchor="middle" fill="#111827" font-size="16" font-weight="600">Sextant Architecture</text>
  <text x="480" y="46" text-anchor="middle" fill="#6b7280" font-size="12">How Sextant integrates into your project</text>
  <rect x="40" y="58" width="880" height="155" rx="8" fill="#eff6ff" stroke="#bfdbfe" stroke-width="1.5"/>
  <text x="60" y="79" fill="#1d4ed8" font-size="12" font-weight="600">YOUR PROJECT  —  Knowledge System</text>
  <text x="60" y="95" fill="#6b7280" font-size="11">Four knowledge files versioned alongside your code — read by Sextant at task start</text>
  <rect x="58" y="103" width="188" height="95" rx="6" fill="#ffffff" stroke="#bfdbfe" stroke-width="1.5"/>
  <rect x="58" y="103" width="188" height="30" rx="6" fill="#dbeafe" stroke="none"/>
  <rect x="58" y="118" width="188" height="15" fill="#dbeafe" stroke="none"/>
  <text x="152" y="122" text-anchor="middle" fill="#1e40af" font-size="12" font-weight="600">SEXTANT.md</text>
  <text x="152" y="145" text-anchor="middle" fill="#374151" font-size="11">Global constraints</text>
  <text x="152" y="160" text-anchor="middle" fill="#6b7280" font-size="10">tech stack · defaults</text>
  <text x="152" y="174" text-anchor="middle" fill="#6b7280" font-size="10">explicit no-go rules</text>
  <text x="152" y="190" text-anchor="middle" fill="#9ca3af" font-size="9">↻ when: constraints change</text>
  <rect x="260" y="103" width="188" height="95" rx="6" fill="#ffffff" stroke="#bfdbfe" stroke-width="1.5"/>
  <rect x="260" y="103" width="188" height="30" rx="6" fill="#dbeafe" stroke="none"/>
  <rect x="260" y="118" width="188" height="15" fill="#dbeafe" stroke="none"/>
  <text x="354" y="122" text-anchor="middle" fill="#1e40af" font-size="11" font-weight="600">modules/*/EVOLUTION.md</text>
  <text x="354" y="145" text-anchor="middle" fill="#374151" font-size="11">Module history</text>
  <text x="354" y="160" text-anchor="middle" fill="#6b7280" font-size="10">design decisions</text>
  <text x="354" y="174" text-anchor="middle" fill="#6b7280" font-size="10">rejected paths</text>
  <text x="354" y="190" text-anchor="middle" fill="#9ca3af" font-size="9">↻ when: history changes</text>
  <rect x="462" y="103" width="200" height="95" rx="6" fill="#ffffff" stroke="#bfdbfe" stroke-width="1.5"/>
  <rect x="462" y="103" width="200" height="30" rx="6" fill="#dbeafe" stroke="none"/>
  <rect x="462" y="118" width="200" height="15" fill="#dbeafe" stroke="none"/>
  <text x="562" y="119" text-anchor="middle" fill="#1e40af" font-size="10" font-weight="600">PROJECT_EVOLUTION_LOG.md</text>
  <text x="562" y="145" text-anchor="middle" fill="#374151" font-size="11">Project decisions</text>
  <text x="562" y="160" text-anchor="middle" fill="#6b7280" font-size="10">cross-module choices</text>
  <text x="562" y="174" text-anchor="middle" fill="#6b7280" font-size="10">architecture trade-offs</text>
  <text x="562" y="190" text-anchor="middle" fill="#9ca3af" font-size="9">↻ when: major decisions</text>
  <rect x="676" y="103" width="200" height="95" rx="6" fill="#ffffff" stroke="#bfdbfe" stroke-width="1.5"/>
  <rect x="676" y="103" width="200" height="30" rx="6" fill="#dbeafe" stroke="none"/>
  <rect x="676" y="118" width="200" height="15" fill="#dbeafe" stroke="none"/>
  <text x="776" y="122" text-anchor="middle" fill="#1e40af" font-size="12" font-weight="600">hook-registry.json</text>
  <text x="776" y="145" text-anchor="middle" fill="#374151" font-size="11">Deterministic rules</text>
  <text x="776" y="160" text-anchor="middle" fill="#6b7280" font-size="10">machine-checkable</text>
  <text x="776" y="174" text-anchor="middle" fill="#6b7280" font-size="10">guardrails · hooks</text>
  <text x="776" y="190" text-anchor="middle" fill="#9ca3af" font-size="9">↻ when: rules change</text>
  <line x1="152" y1="213" x2="152" y2="243" stroke="#2563eb" stroke-width="1.5" stroke-dasharray="5,3" marker-end="url(#mb)"/>
  <line x1="354" y1="213" x2="354" y2="243" stroke="#2563eb" stroke-width="1.5" stroke-dasharray="5,3" marker-end="url(#mb)"/>
  <line x1="562" y1="213" x2="562" y2="243" stroke="#2563eb" stroke-width="1.5" stroke-dasharray="5,3" marker-end="url(#mb)"/>
  <line x1="776" y1="213" x2="776" y2="243" stroke="#2563eb" stroke-width="1.5" stroke-dasharray="5,3" marker-end="url(#mb)"/>
  <rect x="418" y="221" width="65" height="15" rx="3" fill="#ffffff" stroke="#e5e7eb" stroke-width="1"/>
  <text x="450" y="232" text-anchor="middle" fill="#2563eb" font-size="10">reads from</text>
  <rect x="40" y="248" width="880" height="190" rx="8" fill="#faf5ff" stroke="#e9d5ff" stroke-width="1.5"/>
  <text x="60" y="270" fill="#7c3aed" font-size="12" font-weight="600">SEXTANT FRAMEWORK</text>
  <text x="60" y="287" fill="#6b7280" font-size="11">Engineering mindset protocol — context-isolated roles · deterministic rules · structured templates</text>
  <rect x="58" y="295" width="552" height="128" rx="6" fill="#ffffff" stroke="#e9d5ff" stroke-width="1.5"/>
  <text x="76" y="312" fill="#7c3aed" font-size="11" font-weight="600">core/</text>
  <rect x="68" y="318" width="118" height="92" rx="5" fill="#faf5ff" stroke="#d8b4fe" stroke-width="1.2"/>
  <text x="127" y="337" text-anchor="middle" fill="#6d28d9" font-size="12" font-weight="600">roles/</text>
  <text x="127" y="354" text-anchor="middle" fill="#374151" font-size="10">spec · planner</text>
  <text x="127" y="368" text-anchor="middle" fill="#374151" font-size="10">builder · reviewer</text>
  <text x="127" y="382" text-anchor="middle" fill="#374151" font-size="10">rca</text>
  <text x="127" y="400" text-anchor="middle" fill="#9ca3af" font-size="9">5 roles</text>
  <rect x="196" y="318" width="118" height="92" rx="5" fill="#faf5ff" stroke="#d8b4fe" stroke-width="1.2"/>
  <text x="255" y="337" text-anchor="middle" fill="#6d28d9" font-size="12" font-weight="600">rules/</text>
  <text x="255" y="354" text-anchor="middle" fill="#374151" font-size="10">task levels</text>
  <text x="255" y="368" text-anchor="middle" fill="#374151" font-size="10">L0 · L1 · L2</text>
  <text x="255" y="382" text-anchor="middle" fill="#374151" font-size="10">stage gates</text>
  <text x="255" y="400" text-anchor="middle" fill="#9ca3af" font-size="9">3 levels</text>
  <rect x="324" y="318" width="130" height="92" rx="5" fill="#faf5ff" stroke="#d8b4fe" stroke-width="1.2"/>
  <text x="389" y="337" text-anchor="middle" fill="#6d28d9" font-size="12" font-weight="600">templates/</text>
  <text x="389" y="354" text-anchor="middle" fill="#374151" font-size="10">spec · plan</text>
  <text x="389" y="368" text-anchor="middle" fill="#374151" font-size="10">review · rca</text>
  <text x="389" y="382" text-anchor="middle" fill="#374151" font-size="10">record</text>
  <text x="389" y="400" text-anchor="middle" fill="#9ca3af" font-size="9">5 templates</text>
  <rect x="464" y="318" width="134" height="92" rx="5" fill="#faf5ff" stroke="#d8b4fe" stroke-width="1.2"/>
  <text x="531" y="337" text-anchor="middle" fill="#6d28d9" font-size="12" font-weight="600">knowledge/</text>
  <text x="531" y="354" text-anchor="middle" fill="#374151" font-size="10">init templates</text>
  <text x="531" y="368" text-anchor="middle" fill="#374151" font-size="10">for 4 knowledge</text>
  <text x="531" y="382" text-anchor="middle" fill="#374151" font-size="10">object types</text>
  <text x="531" y="400" text-anchor="middle" fill="#9ca3af" font-size="9">bootstrap</text>
  <rect x="620" y="295" width="284" height="128" rx="6" fill="#ffffff" stroke="#fed7aa" stroke-width="1.5"/>
  <text x="638" y="312" fill="#c2410c" font-size="11" font-weight="600">adapters/</text>
  <rect x="630" y="318" width="264" height="92" rx="5" fill="#fff7ed" stroke="#fed7aa" stroke-width="1.2"/>
  <text x="762" y="337" text-anchor="middle" fill="#c2410c" font-size="13" font-weight="600">claude-code/</text>
  <text x="762" y="354" text-anchor="middle" fill="#374151" font-size="10">subagents · slash commands</text>
  <text x="762" y="368" text-anchor="middle" fill="#374151" font-size="10">hooks · install.sh</text>
  <text x="762" y="382" text-anchor="middle" fill="#374151" font-size="10">Claude Code native adapter</text>
  <text x="762" y="400" text-anchor="middle" fill="#9ca3af" font-size="9">v0.0.1 primary adapter</text>
  <line x1="192" y1="468" x2="192" y2="440" stroke="#ea580c" stroke-width="1.5" marker-end="url(#mo)"/>
  <line x1="480" y1="468" x2="480" y2="440" stroke="#ea580c" stroke-width="1.5" marker-end="url(#mo)"/>
  <line x1="768" y1="468" x2="768" y2="440" stroke="#ea580c" stroke-width="1.5" marker-end="url(#mo)"/>
  <rect x="440" y="448" width="55" height="15" rx="3" fill="#ffffff" stroke="#e5e7eb" stroke-width="1"/>
  <text x="467" y="459" text-anchor="middle" fill="#ea580c" font-size="10">triggers</text>
  <rect x="40" y="468" width="880" height="90" rx="8" fill="#f9fafb" stroke="#d1d5db" stroke-width="1.5"/>
  <text x="60" y="489" fill="#374151" font-size="12" font-weight="600">INVOCATION LAYER</text>
  <rect x="58" y="496" width="250" height="50" rx="6" fill="#ffffff" stroke="#d1d5db" stroke-width="1.2"/>
  <text x="183" y="517" text-anchor="middle" fill="#111827" font-size="13" font-weight="600">CLI</text>
  <text x="183" y="533" text-anchor="middle" fill="#6b7280" font-size="10">sextant spec · plan · build · verify · record</text>
  <rect x="355" y="496" width="250" height="50" rx="6" fill="#ffffff" stroke="#d1d5db" stroke-width="1.2"/>
  <text x="480" y="517" text-anchor="middle" fill="#111827" font-size="13" font-weight="600">Git Hooks</text>
  <text x="480" y="533" text-anchor="middle" fill="#6b7280" font-size="10">pre-commit · commit-msg · auto-check</text>
  <rect x="652" y="496" width="250" height="50" rx="6" fill="#ffffff" stroke="#d1d5db" stroke-width="1.2"/>
  <text x="777" y="517" text-anchor="middle" fill="#111827" font-size="13" font-weight="600">CI / CD</text>
  <text x="777" y="533" text-anchor="middle" fill="#6b7280" font-size="10">GitHub Actions · automated gate checks</text>
  <line x1="50" y1="565" x2="78" y2="565" stroke="#2563eb" stroke-width="1.5" stroke-dasharray="5,3" marker-end="url(#mb)"/>
  <text x="85" y="569" fill="#6b7280" font-size="11">reads from</text>
  <line x1="175" y1="565" x2="203" y2="565" stroke="#ea580c" stroke-width="1.5" marker-end="url(#mo)"/>
  <text x="210" y="569" fill="#6b7280" font-size="11">triggers</text>
  <text x="910" y="569" text-anchor="end" fill="#d1d5db" font-size="10">Sextant v0.0.1</text>
</svg>