<svg xmlns="http://www.w3.org/2000/svg" viewBox="0 0 960 400">
  <style>text { font-family: "Helvetica Neue", Helvetica, Arial, "PingFang SC", "Microsoft YaHei", sans-serif; }</style>
  <defs>
    <marker id="ap" markerWidth="10" markerHeight="7" refX="9" refY="3.5" orient="auto"><polygon points="0 0,10 3.5,0 7" fill="#9333ea"/></marker>
  </defs>
  <rect width="960" height="400" fill="#ffffff"/>
  <text x="480" y="30" text-anchor="middle" fill="#111827" font-size="16" font-weight="600">Sextant Workflow</text>
  <text x="480" y="50" text-anchor="middle" fill="#6b7280" font-size="12">Spec  →  Plan  →  Build  →  Verify  →  Record</text>
  <rect x="60" y="70" width="148" height="275" rx="8" fill="#eff6ff" stroke="#bfdbfe" stroke-width="1.5"/>
  <rect x="60" y="70" width="148" height="38" rx="8" fill="#2563eb" stroke="none"/>
  <rect x="60" y="93" width="148" height="15" fill="#2563eb" stroke="none"/>
  <text x="134" y="96" text-anchor="middle" fill="#ffffff" font-size="14" font-weight="600">SPEC</text>
  <text x="134" y="128" text-anchor="middle" fill="#1e40af" font-size="11">Distill fuzzy</text>
  <text x="134" y="144" text-anchor="middle" fill="#1e40af" font-size="11">requirements into</text>
  <text x="134" y="160" text-anchor="middle" fill="#1e40af" font-size="11">executable spec</text>
  <line x1="72" y1="200" x2="196" y2="200" stroke="#bfdbfe" stroke-width="1"/>
  <text x="134" y="218" text-anchor="middle" fill="#6b7280" font-size="10">scope · boundaries</text>
  <text x="134" y="233" text-anchor="middle" fill="#6b7280" font-size="10">acceptance criteria</text>
  <text x="134" y="248" text-anchor="middle" fill="#6b7280" font-size="10">open decisions</text>
  <rect x="70" y="315" width="128" height="20" rx="4" fill="#2563eb" opacity="0.15"/>
  <text x="134" y="329" text-anchor="middle" fill="#2563eb" font-size="10" font-weight="600">spec role</text>
  <rect x="233" y="70" width="148" height="275" rx="8" fill="#faf5ff" stroke="#e9d5ff" stroke-width="1.5"/>
  <rect x="233" y="70" width="148" height="38" rx="8" fill="#7c3aed" stroke="none"/>
  <rect x="233" y="93" width="148" height="15" fill="#7c3aed" stroke="none"/>
  <text x="307" y="96" text-anchor="middle" fill="#ffffff" font-size="14" font-weight="600">PLAN</text>
  <text x="307" y="128" text-anchor="middle" fill="#5b21b6" font-size="11">Minimal viable</text>
  <text x="307" y="144" text-anchor="middle" fill="#5b21b6" font-size="11">approach — prefer</text>
  <text x="307" y="160" text-anchor="middle" fill="#5b21b6" font-size="11">boring default</text>
  <line x1="245" y1="200" x2="369" y2="200" stroke="#e9d5ff" stroke-width="1"/>
  <text x="307" y="218" text-anchor="middle" fill="#6b7280" font-size="10">1-2 candidates</text>
  <text x="307" y="233" text-anchor="middle" fill="#6b7280" font-size="10">full footprint</text>
  <text x="307" y="248" text-anchor="middle" fill="#6b7280" font-size="10">declared</text>
  <rect x="243" y="315" width="128" height="20" rx="4" fill="#7c3aed" opacity="0.15"/>
  <text x="307" y="329" text-anchor="middle" fill="#7c3aed" font-size="10" font-weight="600">planner role</text>
  <rect x="406" y="70" width="148" height="275" rx="8" fill="#f0fdf4" stroke="#bbf7d0" stroke-width="1.5"/>
  <rect x="406" y="70" width="148" height="38" rx="8" fill="#16a34a" stroke="none"/>
  <rect x="406" y="93" width="148" height="15" fill="#16a34a" stroke="none"/>
  <text x="480" y="96" text-anchor="middle" fill="#ffffff" font-size="14" font-weight="600">BUILD</text>
  <text x="480" y="128" text-anchor="middle" fill="#14532d" font-size="11">Implement strictly</text>
  <text x="480" y="144" text-anchor="middle" fill="#14532d" font-size="11">within approved</text>
  <text x="480" y="160" text-anchor="middle" fill="#14532d" font-size="11">plan scope</text>
  <line x1="418" y1="200" x2="542" y2="200" stroke="#bbf7d0" stroke-width="1"/>
  <text x="480" y="218" text-anchor="middle" fill="#6b7280" font-size="10">no scope creep</text>
  <text x="480" y="233" text-anchor="middle" fill="#6b7280" font-size="10">hooks run</text>
  <text x="480" y="248" text-anchor="middle" fill="#6b7280" font-size="10">before done</text>
  <rect x="416" y="315" width="128" height="20" rx="4" fill="#16a34a" opacity="0.15"/>
  <text x="480" y="329" text-anchor="middle" fill="#16a34a" font-size="10" font-weight="600">builder role</text>
  <rect x="579" y="70" width="148" height="275" rx="8" fill="#fefce8" stroke="#fef08a" stroke-width="1.5"/>
  <rect x="579" y="70" width="148" height="38" rx="8" fill="#ca8a04" stroke="none"/>
  <rect x="579" y="93" width="148" height="15" fill="#ca8a04" stroke="none"/>
  <text x="653" y="96" text-anchor="middle" fill="#ffffff" font-size="14" font-weight="600">VERIFY</text>
  <text x="653" y="128" text-anchor="middle" fill="#713f12" font-size="11">Deterministic tools</text>
  <text x="653" y="144" text-anchor="middle" fill="#713f12" font-size="11">+ adversarial</text>
  <text x="653" y="160" text-anchor="middle" fill="#713f12" font-size="11">reviewer</text>
  <line x1="591" y1="200" x2="715" y2="200" stroke="#fef08a" stroke-width="1"/>
  <text x="653" y="218" text-anchor="middle" fill="#6b7280" font-size="10">tests · types · lint</text>
  <text x="653" y="233" text-anchor="middle" fill="#6b7280" font-size="10">deletion_proposals</text>
  <text x="653" y="248" text-anchor="middle" fill="#6b7280" font-size="10">required</text>
  <rect x="589" y="315" width="128" height="20" rx="4" fill="#ca8a04" opacity="0.15"/>
  <text x="653" y="329" text-anchor="middle" fill="#ca8a04" font-size="10" font-weight="600">reviewer role</text>
  <rect x="752" y="70" width="148" height="275" rx="8" fill="#fff7ed" stroke="#fed7aa" stroke-width="1.5"/>
  <rect x="752" y="70" width="148" height="38" rx="8" fill="#ea580c" stroke="none"/>
  <rect x="752" y="93" width="148" height="15" fill="#ea580c" stroke="none"/>
  <text x="826" y="96" text-anchor="middle" fill="#ffffff" font-size="14" font-weight="600">RECORD</text>
  <text x="826" y="128" text-anchor="middle" fill="#7c2d12" font-size="11">Write back</text>
  <text x="826" y="144" text-anchor="middle" fill="#7c2d12" font-size="11">knowledge that</text>
  <text x="826" y="160" text-anchor="middle" fill="#7c2d12" font-size="11">changes judgment</text>
  <line x1="764" y1="200" x2="888" y2="200" stroke="#fed7aa" stroke-width="1"/>
  <text x="826" y="218" text-anchor="middle" fill="#6b7280" font-size="10">SEXTANT.md</text>
  <text x="826" y="233" text-anchor="middle" fill="#6b7280" font-size="10">EVOLUTION.md</text>
  <text x="826" y="248" text-anchor="middle" fill="#6b7280" font-size="10">hook-registry</text>
  <rect x="762" y="315" width="128" height="20" rx="4" fill="#ea580c" opacity="0.15"/>
  <text x="826" y="329" text-anchor="middle" fill="#ea580c" font-size="10" font-weight="600">knowledge system</text>
  <line x1="208" y1="205" x2="231" y2="205" stroke="#9333ea" stroke-width="2" marker-end="url(#ap)"/>
  <line x1="381" y1="205" x2="404" y2="205" stroke="#9333ea" stroke-width="2" marker-end="url(#ap)"/>
  <line x1="554" y1="205" x2="577" y2="205" stroke="#9333ea" stroke-width="2" marker-end="url(#ap)"/>
  <line x1="727" y1="205" x2="750" y2="205" stroke="#9333ea" stroke-width="2" marker-end="url(#ap)"/>
  <rect x="60" y="360" width="840" height="30" rx="6" fill="#f9fafb" stroke="#e5e7eb" stroke-width="1"/>
  <text x="185" y="379" text-anchor="middle" fill="#6b7280" font-size="11"><tspan font-weight="600" fill="#374151">L0</tspan>  micro-task → local verify + record</text>
  <text x="480" y="379" text-anchor="middle" fill="#6b7280" font-size="11"><tspan font-weight="600" fill="#374151">L1</tspan>  standard task → full 5-phase flow</text>
  <text x="775" y="379" text-anchor="middle" fill="#6b7280" font-size="11"><tspan font-weight="600" fill="#374151">L2</tspan>  high-risk → strict reviewer + rollback</text>
  <text x="910" y="395" text-anchor="end" fill="#d1d5db" font-size="10">Sextant v0.0.1</text>
</svg>